<svg width="1254" height="1254" viewBox="0 0 1254 1254" fill="none" xmlns="http://www.w3.org/2000/svg">
<path d="M382.912 96.4123C394.02 96.0933 405.546 96.1227 416.673 96.0639L739.174 96.0033C795.359 96.0039 851.612 95.4761 907.772 97.3216C931.083 98.0875 954.112 99.9067 976.84 105.407C1013.47 114.178 1046.94 132.99 1073.49 159.727C1138.61 224.634 1136.56 300.939 1136.95 386.649L1136.97 743.013L1136.93 858.218C1136.83 898.533 1136.79 955.054 1128.08 993.777C1119.73 1032.61 1100.36 1068.21 1072.3 1096.33C1015.28 1153.48 948.362 1158.28 872.473 1158.58C758.303 1160.19 641.652 1159 527.322 1159C484.168 1159.15 441.014 1159.06 397.861 1158.74C361.017 1158.33 317.302 1158.52 281.62 1150.44C245.324 1142.44 211.938 1124.58 185.135 1098.84C172.889 1087.01 162.181 1073.69 153.265 1059.2C119.079 1004.02 119.33 946.225 118.196 883.384C117.453 842.17 117.941 799.933 117.956 758.652L117.973 536.719L117.951 404.205C117.992 362.704 117.887 299.555 126.617 260.124C134.763 223.383 152.867 189.593 178.944 162.46C238.626 100.158 302.873 98.1335 382.912 96.4123Z" fill="#FF7302"/>
<g opacity="0.28">
<mask id="mask0_1_3" style="mask-type:alpha" maskUnits="userSpaceOnUse" x="117" y="95" width="1020" height="1065">
<path d="M382.912 96.4123C394.02 96.0933 405.546 96.1227 416.673 96.0639L739.174 96.0033C795.359 96.0039 851.612 95.4761 907.772 97.3216C931.083 98.0875 954.112 99.9067 976.84 105.407C1013.47 114.178 1046.94 132.99 1073.49 159.727C1138.61 224.634 1136.56 300.939 1136.95 386.649L1136.97 743.013L1136.93 858.218C1136.83 898.533 1136.79 955.054 1128.08 993.777C1119.73 1032.61 1100.36 1068.21 1072.3 1096.33C1015.28 1153.48 948.362 1158.28 872.473 1158.58C758.303 1160.19 641.652 1159 527.322 1159C484.168 1159.15 441.014 1159.06 397.861 1158.74C361.017 1158.33 317.302 1158.52 281.62 1150.44C245.324 1142.44 211.938 1124.58 185.135 1098.84C172.889 1087.01 162.181 1073.69 153.265 1059.2C119.079 1004.02 119.33 946.225 118.196 883.384C117.453 842.17 117.941 799.933 117.956 758.652L117.973 536.719L117.951 404.205C117.992 362.704 117.887 299.555 126.617 260.124C134.763 223.383 152.867 189.593 178.944 162.46C238.626 100.158 302.873 98.1335 382.912 96.4123Z" fill="#FF7302"/>
</mask>
<g mask="url(#mask0_1_3)">
<g filter="url(#filter0_f_1_3)">
<circle cx="801" cy="335" r="562" fill="white"/>
</g>
</g>
</g>
<path d="M681.862 332.253C684.857 323.167 688.794 316.175 697.899 311.759C704.365 308.614 711.823 308.23 718.576 310.696C739.156 318.156 736.229 341.482 736.254 358.784L781.356 358.763C787.087 358.796 793.106 358.73 798.807 358.876C807.844 363.842 810.508 372.072 810.728 381.957C811.279 384.87 811.445 388.691 811.389 391.985C811.163 404.541 812.761 431.522 795.947 434.334C792.641 434.888 785.232 434.561 781.662 434.633C776.751 434.6 755.131 434.089 752.088 435.219C756.637 476.846 734.221 518.333 689.645 523.906C688.145 524.093 686.645 524.177 685.132 524.143C678.28 536.274 672.696 550.582 667.92 563.616C651.988 607.074 645.847 652.166 639.136 697.672C638.205 703.985 634.991 716.66 635.027 723.297C635.027 723.738 635.86 724.093 636.344 724.387C653.317 724.179 670.565 730.382 685.077 738.813C704.267 710.469 727.332 689.247 758.903 675.237C799.052 657.242 844.705 655.944 885.809 671.625C924.219 686.908 954.956 716.862 971.231 754.861C972.364 757.525 973.215 759.95 974.097 762.699C978.959 773.28 982.026 784.987 984.298 796.394C992.436 836.929 989.08 878.933 974.605 917.661C960.13 956.72 933.44 989.521 895.122 1007.04C862.939 1021.9 826.146 1023.22 792.984 1010.71C779.782 1005.73 767.432 998.736 756.368 989.98C749.13 994.285 738.329 998.467 730.381 1001.53C683.216 1019.71 632.07 1025.45 581.791 1023.68C570.714 1023.28 556.184 1022.85 545.312 1020.77C533.554 1020.44 518.65 1018.2 507.081 1016.24C464.733 1009.22 423.387 997.108 383.941 980.177C354.606 967.362 334.239 957.785 322.154 926.025C303.094 875.939 311.508 801.054 332.697 752.884C360.118 683.369 400.424 636.032 453.999 584.422C480.809 558.598 512.977 530.972 529.88 498.025C524.437 488.165 523.347 484.626 521.445 473.466C521.099 471.131 521.075 467.965 520.982 465.543C520.434 460.881 520.502 457.063 520.509 452.359C520.777 445.932 520.858 441.079 520.674 434.605C505.316 434.9 488.917 434.656 473.494 434.588C469.938 434.621 462.975 434.837 459.678 434.354C443.313 431.959 444.706 405.269 444.484 393.203C444.424 389.907 444.562 386.097 445.089 383.122C445.119 372.998 447.77 364.259 456.826 358.85C464.562 358.597 472.901 358.857 480.776 358.722L520.515 358.771C520.403 344.186 518.421 328.437 529.343 317.199C534.429 311.963 541.435 309.036 548.734 309.099C555.843 309.059 562.643 312 567.483 317.207C571.755 321.78 573.401 326.189 575.413 331.862C578.342 323.22 581.694 316.438 590.429 312.02C596.725 308.806 604.052 308.272 610.748 310.54C620.957 314.065 626.51 322.735 628.702 332.87C630.925 324.33 634.28 317.461 642.314 312.768C648.431 309.148 655.766 308.21 662.593 310.176C673.621 313.328 679.223 321.615 681.862 332.253Z" fill="#FEFEFD"/>
<path d="M585.616 467.525C608.982 474.48 618.642 475.194 623.289 502.823C621.483 508.124 617.062 511.439 612.623 514.483C591.795 528.751 566.875 525.975 546.241 513.27C532.148 538.838 512.849 561.126 493.358 582.812C448.123 633.141 400.362 682.352 381.623 749.424C368.497 796.406 377.635 850.712 423.914 875.602C436.27 882.251 449.817 886.115 463.345 889.617C517.126 902.635 579.065 904.294 632.382 888.344C659.397 880.255 688.39 865.94 708.29 846.125C713.01 846.824 714.658 846.419 719.323 845.464C741.685 866.907 779.862 877.408 811.463 877.494C906.542 877.751 970.148 768.308 905.886 692.008C900.149 685.193 891.412 678.538 885.809 671.625C924.219 686.908 954.956 716.862 971.231 754.861C972.364 757.525 973.215 759.95 974.097 762.699C978.959 773.28 982.026 784.987 984.298 796.394C992.436 836.929 989.08 878.933 974.605 917.661C960.13 956.72 933.44 989.521 895.122 1007.04C862.939 1021.9 826.146 1023.22 792.984 1010.71C779.782 1005.73 767.432 998.736 756.368 989.98C749.13 994.285 738.329 998.467 730.381 1001.53C683.216 1019.71 632.07 1025.45 581.791 1023.68C570.714 1023.28 556.184 1022.85 545.312 1020.77C533.554 1020.44 518.65 1018.2 507.081 1016.24C464.733 1009.22 423.387 997.108 383.941 980.177C354.606 967.362 334.239 957.785 322.154 926.025C303.094 875.939 311.508 801.054 332.697 752.884C360.118 683.369 400.424 636.032 453.999 584.422C480.809 558.598 512.977 530.972 529.88 498.025C524.437 488.165 523.347 484.626 521.445 473.466C521.59 471.718 521.42 470.643 522.26 469.289C525.646 471.537 537.701 470.461 541.94 469.592C548.297 470.436 554.733 470.51 561.108 469.815C566.437 471.148 580.646 469.957 586.129 469.228L585.488 468.327L585.616 467.525Z" fill="#FDF0E4"/>
<path d="M332.697 752.884C332.83 753.153 332.977 753.423 333.097 753.698C334.271 756.405 329.996 780.186 329.502 785.924C323.941 850.467 348.736 913.295 409.473 942.515C429.685 952.238 451.671 958.318 473.589 962.733C533.256 974.752 598.181 975.083 656.084 954.589C682.383 945.276 710.439 930.575 729.2 909.511C751.873 938.455 782.862 957.136 819.564 961.729C853.914 966.29 888.656 956.867 915.989 935.577C950.297 908.813 969.713 866.234 974.899 823.678C976.381 811.42 976.687 799.052 975.83 786.738C975.346 780.033 973.724 768.92 974.097 762.699C978.959 773.28 982.026 784.987 984.298 796.394C992.436 836.929 989.08 878.933 974.605 917.661C960.13 956.72 933.44 989.521 895.122 1007.04C862.939 1021.9 826.146 1023.22 792.984 1010.71C779.782 1005.73 767.432 998.736 756.368 989.98C749.13 994.285 738.329 998.467 730.381 1001.53C683.216 1019.71 632.07 1025.45 581.791 1023.68C570.714 1023.28 556.184 1022.85 545.312 1020.77C533.554 1020.44 518.65 1018.2 507.081 1016.24C464.733 1009.22 423.387 997.108 383.941 980.177C354.606 967.362 334.239 957.785 322.154 926.025C303.094 875.939 311.508 801.054 332.697 752.884Z" fill="#FDD4A4"/>
<path d="M728.912 961.967C738.354 974.079 744.765 980 756.368 989.98C749.13 994.285 738.329 998.467 730.381 1001.53C683.216 1019.71 632.07 1025.45 581.791 1023.68C570.714 1023.28 556.184 1022.85 545.312 1020.77C566.3 1020.51 584.909 1019.71 605.695 1016.71C646.086 1010.87 699.552 991.432 728.912 961.967Z" fill="#FEA53D"/>
<path d="M681.863 332.253C684.857 323.167 688.794 316.175 697.899 311.759C704.365 308.614 711.823 308.23 718.576 310.696C739.156 318.156 736.229 341.482 736.254 358.784L781.356 358.763C787.087 358.796 793.106 358.73 798.807 358.876C807.844 363.842 810.508 372.072 810.728 381.957C811.279 384.87 811.445 388.691 811.389 391.985C811.163 404.541 812.761 431.522 795.947 434.334C792.641 434.888 785.232 434.561 781.662 434.633C776.751 434.6 755.131 434.089 752.088 435.219C748.457 421.899 746.191 415.17 735.868 406.104C730.976 402.287 726.04 400.156 720.187 398.36C709.606 397.12 693.625 397.171 682.793 397.479L680.969 397.302C658.65 397.334 635.952 394.741 634.25 424.604C630.778 419.532 630.19 417.441 628.617 411.722L627.747 412.882C627.288 416.283 626.382 419.248 624.667 422.263C621.361 427.996 615.874 432.147 609.454 433.773C593.035 438.064 579.494 428.518 575.87 412.349C574.696 412.941 575.075 412.514 574.58 413.479C567.574 440.215 541.983 434.325 520.674 434.605C505.316 434.9 488.917 434.656 473.494 434.588C469.938 434.621 462.975 434.837 459.678 434.354C443.314 431.959 444.706 405.269 444.484 393.203C444.424 389.907 444.562 386.097 445.089 383.122C445.119 372.998 447.77 364.259 456.826 358.85C464.562 358.597 472.901 358.857 480.776 358.722L520.515 358.771C520.403 344.186 518.421 328.437 529.343 317.199C534.429 311.963 541.435 309.036 548.734 309.099C555.843 309.059 562.643 312 567.483 317.207C571.755 321.78 573.401 326.189 575.413 331.862C578.342 323.22 581.694 316.438 590.429 312.02C596.725 308.806 604.052 308.272 610.748 310.54C620.957 314.065 626.51 322.735 628.702 332.87C630.925 324.33 634.28 317.461 642.314 312.768C648.431 309.148 655.766 308.21 662.593 310.176C673.621 313.328 679.223 321.615 681.863 332.253Z" fill="#FEFEFD"/>
<path d="M574.375 368.016C574.554 366.043 575.034 358.244 575.601 357.036C575.833 359.799 576.605 365.84 576.328 368.086C575.949 378.675 575.142 402.246 575.87 412.349C574.696 412.941 575.075 412.514 574.58 413.479C567.574 440.215 541.983 434.325 520.674 434.605C505.316 434.9 488.917 434.656 473.494 434.588C469.938 434.621 462.975 434.837 459.678 434.354C443.314 431.959 444.706 405.269 444.484 393.203C444.424 389.907 444.562 386.097 445.089 383.122C445.422 385.745 445.354 391.067 445.387 393.94C461.385 409.481 481.372 408.945 502.439 405.51C508.706 404.488 513.258 400.477 519.225 399.111C520.249 400.319 519.492 402.244 520.095 404.85C520.33 398.662 519.721 368.465 521.336 365.461C522.418 366.24 523.391 375.699 524.044 378.096C528.532 394.56 548.97 401.374 562.737 391.237C571.479 384.8 571.631 371.769 572.794 361.495C573.42 363.633 574.166 365.815 574.375 368.016Z" fill="#FEF0E2"/>
<path d="M574.375 368.016C574.554 366.043 575.034 358.244 575.601 357.036C575.833 359.799 576.605 365.84 576.327 368.086C575.949 378.675 575.142 402.246 575.87 412.349C574.696 412.941 575.075 412.514 574.58 413.479C573.246 403.981 574.399 379.08 574.375 368.016Z" fill="#FDD4A4"/>
<path d="M627.539 339.62C627.821 337.794 627.716 336.671 628.702 335.309C630.294 340.594 630.068 362.697 629.976 369.059C628.69 378.374 630.539 406.38 628.617 411.722L627.747 412.882C627.288 416.283 626.382 419.248 624.667 422.263C621.361 427.996 615.874 432.147 609.454 433.773C593.035 438.064 579.494 428.518 575.87 412.349C575.142 402.246 575.949 378.675 576.327 368.086L576.86 368.295C577.957 370.097 578.634 375.185 579.311 377.528C581.507 385.286 586.731 394.221 595.419 395.478C617.601 398.689 624.967 385.573 626.559 366.039C627.233 357.783 626.069 346.721 627.539 339.62Z" fill="#FEE5C9"/>
<path d="M627.539 339.62C627.82 337.794 627.716 336.671 628.702 335.309C630.294 340.594 630.068 362.697 629.976 369.059C628.69 378.374 630.539 406.38 628.616 411.722L627.747 412.882C629.143 407.525 627.759 401.704 627.82 396.192C627.974 382.663 627.606 369.112 627.802 355.589C627.882 349.783 628.672 345.493 627.539 339.62Z" fill="#FDD4A4"/>
<path d="M810.728 381.957C811.279 384.87 811.445 388.691 811.389 391.985C811.163 404.541 812.761 431.522 795.947 434.334C792.641 434.888 785.232 434.561 781.662 434.633C776.751 434.6 755.131 434.089 752.088 435.219C748.457 421.899 746.191 415.17 735.868 406.104L736.523 405.35C736.719 403.276 736.572 400.666 736.511 398.543C739.535 398.209 742.309 397.759 745.297 397.271C758.75 408.783 776.402 409.076 793.008 404.68C800.264 402.76 805.456 397.564 810.655 392.479C810.575 388.729 810.532 385.716 810.728 381.957Z" fill="#FDF0E4"/>
<path d="M680.442 364.938C679.952 360.51 680.43 338.785 681.514 335.251L682.077 335.92C685.873 352.448 679.285 381.17 695.296 391.86C700.654 395.496 707.273 396.752 713.592 395.33C720.425 393.75 725.948 390.324 729.683 384.362C733.321 378.556 731.808 371.101 735.109 366.522C737.778 369.155 735.984 393.079 736.511 398.543C736.572 400.666 736.719 403.276 736.523 405.35L735.868 406.104C730.975 402.287 726.04 400.156 720.187 398.36C709.606 397.12 693.625 397.171 682.793 397.479L680.969 397.302C680.448 387.229 681.648 374.355 680.442 364.938Z" fill="#FEE5C9"/>
<path d="M680.442 364.938C679.952 360.51 680.43 338.785 681.514 335.251L682.077 335.92C681.464 342.965 683.24 351.381 683.081 358.199C682.787 370.566 683.479 385.347 682.793 397.479L680.969 397.302C680.448 387.229 681.648 374.355 680.442 364.938Z" fill="#FDD4A4"/>
<path d="M720.187 398.36C723.591 396.668 732.01 397.436 735.929 397.648C736.027 399.827 736.064 403.336 736.523 405.35L735.868 406.104C730.975 402.287 726.04 400.156 720.187 398.36Z" fill="#FDD4A4"/>
<path d="M680.442 364.938C681.648 374.355 680.448 387.229 680.969 397.302C658.65 397.334 635.952 394.741 634.25 424.604C630.778 419.532 630.19 417.441 628.617 411.722C630.539 406.38 628.69 378.374 629.976 369.059C632.48 373.747 632.333 380.823 635.309 385.399C642.216 396.014 657.603 398.905 668.19 392.234C677.705 386.242 678.207 374.866 680.442 364.938Z" fill="#FEE5C9"/>
<path d="M572.794 361.495C572.04 352.616 573.572 340.778 575.378 332.043C577.096 346.133 577.548 354.205 576.86 368.295L576.327 368.086C576.605 365.84 575.833 359.799 575.601 357.036C575.034 358.244 574.554 366.043 574.375 368.016C574.166 365.815 573.42 363.633 572.794 361.495Z" fill="#FEE5C9"/>
<path d="M662.379 524.032C669.543 524.427 677.809 524.091 685.132 524.143C678.28 536.274 672.696 550.582 667.92 563.616C651.988 607.074 645.847 652.166 639.136 697.672C638.205 703.985 634.991 716.66 635.027 723.297C635.027 723.738 635.86 724.093 636.344 724.387C632.394 723.689 628.776 723.787 624.796 723.787C570.267 723.854 521.358 755.866 491.789 800.38C487.617 806.656 483.841 813.208 479.612 819.484C485.889 799.058 491.134 783.248 504.658 765.95C524.814 740.178 558.762 718.784 591.498 714.841C615.887 671.582 628.396 623.436 642.724 576.375C648.088 558.757 655.368 541.08 662.379 524.032Z" fill="#FDD4A4"/>
<path d="M574.58 413.479C575.075 412.514 574.696 412.941 575.87 412.349C579.494 428.518 593.035 438.064 609.454 433.773C615.874 432.147 621.361 427.996 624.667 422.263C626.382 419.248 627.288 416.283 627.747 412.882L628.616 411.722C630.19 417.441 630.778 419.532 634.25 424.604C634.421 429.215 634.948 431.825 636.362 436.297L637.832 435.192C644.181 436.354 644.977 439.524 653.709 441.77C666.12 444.961 685.769 438.908 693.215 449.896C693.858 450.848 694.396 451.867 694.819 452.936C694.574 463.38 691.396 466.937 681.611 470.404C662.997 473.68 645.712 464.685 631.207 484.797C626.89 490.774 625.035 495.757 623.289 502.823C618.642 475.194 608.982 474.48 585.616 467.525L585.488 468.327L586.129 469.228C580.646 469.957 566.437 471.148 561.108 469.815C554.733 470.51 548.297 470.436 541.94 469.592C537.701 470.461 525.646 471.537 522.26 469.289C521.42 470.643 521.59 471.718 521.445 473.466C521.099 471.131 521.075 467.965 520.983 465.543C520.434 460.881 520.502 457.063 520.509 452.359C520.777 445.932 520.858 441.079 520.674 434.605C541.983 434.325 567.574 440.215 574.58 413.479Z" fill="#FEA53D"/>
<path d="M575.424 438.77C588.872 458.033 610.184 457.42 626.51 442.266C629.284 449.159 631.231 453.718 636.038 459.453C648.59 474.406 664.877 468.985 681.611 470.404C662.997 473.68 645.712 464.685 631.207 484.797C626.89 490.774 625.035 495.757 623.289 502.823C618.642 475.194 608.982 474.48 585.616 467.525L585.488 468.327L586.129 469.228C580.646 469.957 566.437 471.148 561.108 469.815C554.733 470.51 548.297 470.436 541.941 469.592C537.701 470.461 525.646 471.537 522.26 469.289C521.42 470.643 521.59 471.718 521.445 473.466C521.099 471.131 521.075 467.965 520.983 465.543C521.075 462.4 520.673 454.329 521.597 452.185C526.332 452.351 531.688 452.662 536.376 452.602C552.75 452.981 564.732 453.972 575.424 438.77Z" fill="#FDD4A4"/>
<path d="M520.983 465.543C521.075 462.4 520.673 454.329 521.597 452.185C525.565 460.731 530.489 465.618 539.559 468.827C540.346 469.103 541.14 469.357 541.941 469.592C537.701 470.461 525.646 471.537 522.26 469.289C521.42 470.643 521.59 471.718 521.445 473.466C521.099 471.131 521.075 467.965 520.983 465.543Z" fill="#FEE5C9"/>
<path d="M561.108 469.815C567.331 466.99 570.899 465.518 575.551 460.339C578.927 463.871 581.369 465.107 585.616 467.525L585.488 468.327L586.129 469.228C580.646 469.957 566.437 471.148 561.108 469.815Z" fill="#FEE5C9"/>
<path d="M636.362 436.297L637.832 435.193C644.181 436.354 644.977 439.524 653.709 441.77C666.12 444.961 685.769 438.908 693.215 449.896C693.858 450.848 694.396 451.867 694.819 452.936C686.883 453.349 678.636 453.14 670.682 453.257C655.184 453.486 644.022 451.253 636.362 436.297Z" fill="#FDF0E4"/>
<path d="M520.509 452.359C522.693 448.497 523.417 447.65 524.047 443.095C528.546 447.615 533.371 449.61 536.376 452.602C531.688 452.662 526.332 452.35 521.597 452.185C520.673 454.329 521.075 462.4 520.983 465.543C520.434 460.88 520.502 457.063 520.509 452.359Z" fill="#FFBF75"/>
<path d="M345.546 264.789C359.845 229.549 369.868 226.096 407.105 226.537C437.672 226.9 455.243 226.152 464.985 261.9C471.089 275.766 473.173 312.299 473.41 327.987C474.328 336.188 473.96 349.606 473.962 358.236L480.776 358.722C472.901 358.857 464.562 358.597 456.826 358.85C447.77 364.259 445.119 372.998 445.089 383.122C444.562 386.097 444.424 389.907 444.484 393.203C444.706 405.269 443.314 431.959 459.678 434.354C462.975 434.837 469.938 434.621 473.494 434.588C473.294 442.524 473.209 450.463 473.237 458.401C472.205 485.074 469.473 540.481 443.823 554.874C442.091 555.872 440.365 556.701 438.49 557.401C429.784 560.651 392.414 560.483 382.366 559.31C378.404 558.884 374.538 557.814 370.919 556.144C358.215 550.177 350.977 536.086 346.457 523.479L337.63 523.537C323.44 523.419 303.423 526.126 292.89 516.847C275.133 501.205 271.567 463.678 269.462 441.488L264.457 441.567C242.819 442.254 241 426.445 239.914 408.855C238.218 394.6 237.931 364.428 247.854 353.19C252.657 347.751 262.809 348.774 269.637 348.878C271.59 323.018 276.367 268.537 308.951 265.05C314.316 263.99 338.765 264.687 345.546 264.789Z" fill="#FEFEFD"/>
<path d="M443.823 554.874C441.895 553.165 439.315 553.506 436.824 552.912C428.228 550.863 422.54 544.745 418.208 537.396C390.885 491.05 389.225 350.881 402.811 298.996C407.006 282.981 416.152 255.308 431.292 246.951C452.752 235.106 458.783 260.136 464.985 261.9C471.089 275.766 473.173 312.299 473.41 327.987C474.328 336.188 473.96 349.606 473.962 358.236L480.776 358.722C472.901 358.857 464.562 358.597 456.826 358.85C447.77 364.259 445.119 372.998 445.089 383.122C444.562 386.097 444.424 389.907 444.484 393.203C444.706 405.269 443.313 431.959 459.678 434.354C462.975 434.837 469.938 434.621 473.494 434.588C473.294 442.524 473.209 450.463 473.237 458.401C472.204 485.074 469.473 540.481 443.823 554.874Z" fill="#FEE5C9"/>
<path d="M473.237 458.401C469.772 464.086 468.869 471.567 465.598 477.615C462.959 482.496 458.663 487.556 453.052 488.979C450.131 489.719 447.279 489.188 444.714 487.648C436.303 482.596 431.803 469.179 429.373 460.222C419.608 424.226 417.545 344.997 436.42 312.737C438.945 308.422 442.619 303.722 447.77 302.598C451.396 301.807 455.034 303.026 458.016 305.099C467.902 311.969 471.157 327.79 473.052 338.792L473.41 327.987C474.328 336.188 473.96 349.606 473.962 358.236L480.776 358.722C472.901 358.857 464.562 358.597 456.826 358.85C447.77 364.259 445.119 372.998 445.089 383.122C444.562 386.097 444.424 389.907 444.484 393.203C444.706 405.269 443.313 431.959 459.678 434.354C462.975 434.837 469.938 434.621 473.494 434.588C473.294 442.524 473.209 450.463 473.237 458.401Z" fill="#FEA53D"/>
<path d="M308.951 265.05C314.316 263.99 338.765 264.687 345.546 264.789C325.516 331.73 324.83 403.882 334.23 472.809C335.53 482.336 342.228 516.663 346.457 523.479L337.63 523.537C323.44 523.419 303.423 526.126 292.89 516.847C275.133 501.205 271.567 463.678 269.462 441.488L264.457 441.567C242.819 442.254 241 426.445 239.914 408.855C238.218 394.6 237.931 364.428 247.854 353.19C252.657 347.751 262.809 348.774 269.637 348.878C271.59 323.018 276.367 268.537 308.951 265.05Z" fill="#FEFEFD"/>
<path d="M308.951 265.05C314.316 263.99 338.765 264.687 345.546 264.789C325.516 331.73 324.83 403.882 334.23 472.809C335.53 482.336 342.228 516.663 346.457 523.479L337.63 523.537C337.459 520.412 333.377 510.613 332.55 506.398C330.243 494.647 327.562 482.127 326.104 470.252C318.811 410.8 319.258 347.797 331.346 289.035C332.763 282.144 335.941 272.272 337.948 265.343C328.667 265.323 318.12 265.523 308.951 265.05Z" fill="#FEE5C9"/>
<path d="M239.914 408.855C246.968 411.808 244.85 413.98 255.136 417.055C257.261 416.565 261.981 415.632 263.738 414.76C264.119 423.526 264.701 432.855 264.457 441.567C242.819 442.254 241 426.445 239.914 408.855Z" fill="#FEE5C9"/>
<path d="M264.516 398.104C264.416 391.185 265.882 356.887 268.068 352.075L268.711 352.089C268.968 354.091 268.313 372.954 268.196 375.984C267.809 385.949 268.717 398.868 268.113 408.481L268.167 411.431C266.882 412.436 265.065 413.95 263.738 414.76C263.639 410.607 262.723 401.199 264.516 398.104Z" fill="#FDF0E4"/>
<path d="M264.516 398.104C265.685 395.357 266.619 393.03 267.638 390.217C267.567 395.668 267.272 403.284 268.113 408.481L268.167 411.431C266.882 412.436 265.065 413.95 263.738 414.76C263.639 410.607 262.723 401.199 264.516 398.104Z" fill="#FEE5C9"/>
<path d="M263.738 414.76C265.066 413.95 266.882 412.436 268.167 411.431C268.164 422.111 269.36 431.469 269.462 441.488L264.457 441.567C264.701 432.855 264.119 423.526 263.738 414.76Z" fill="#FDD4A4"/>
<path d="M795.029 253.699C811.616 220.452 829.471 227.399 861.605 226.518C891.387 225.702 899.855 239.963 910.356 264.678C917.906 264.595 938.718 264.026 945.705 265.05C979.247 266.804 983.551 323.251 985.676 348.871C992.338 348.775 1003.29 347.779 1007.84 353.21C1016.9 364.04 1017 393.369 1015.42 407.066C1014.78 416.666 1014.39 431.021 1006.66 437.711C1001.65 442.048 996.814 441.731 990.764 441.448L985.829 441.505C983.717 463.314 979.32 502.861 961.6 517.323C951.117 525.878 931.873 523.529 917.992 523.533L909.297 523.514C899.598 545.533 890.371 561.35 863.129 559.675C846.824 558.673 824.254 563.032 810.085 554.351C785.722 539.578 781.919 482.674 781.98 456.217C781.913 448.597 781.993 442.383 781.662 434.633C785.232 434.561 792.641 434.888 795.947 434.334C812.761 431.522 811.163 404.541 811.389 391.985C811.445 388.691 811.279 384.87 810.728 381.957C810.508 372.072 807.844 363.842 798.807 358.876C793.106 358.73 787.087 358.796 781.356 358.763C782.427 355.38 780.97 338.063 781.778 331.833C782.721 305.589 784.381 278.054 795.029 253.699Z" fill="#FEFEFD"/>
<path d="M795.029 253.699L795.99 256.023C796.119 255.824 796.241 255.619 796.376 255.427C800.117 250.292 806.754 245.13 813.11 244.303C818.511 243.601 823.593 245.696 827.707 249.089C851.318 268.546 857.012 317.313 859.229 346.114C862.743 391.632 862.682 509.122 832.098 544.341C827.352 549.804 821.854 552.624 814.635 553.089C812.785 553.208 811.64 552.853 810.214 554.184C810.165 554.232 810.128 554.296 810.085 554.351C785.722 539.578 781.919 482.674 781.98 456.217C781.913 448.597 781.993 442.383 781.662 434.633C785.232 434.561 792.641 434.888 795.947 434.334C812.761 431.522 811.163 404.541 811.389 391.985C811.445 388.691 811.279 384.87 810.728 381.957C810.508 372.072 807.844 363.842 798.807 358.876C793.106 358.73 787.087 358.796 781.356 358.763C782.427 355.38 780.97 338.063 781.778 331.833C782.721 305.589 784.381 278.054 795.029 253.699Z" fill="#FEE5C9"/>
<path d="M782.434 340.043C783.946 328.051 787.436 312.99 797.637 305.252C800.264 303.262 803.258 301.683 806.65 302.135C811.279 302.752 814.978 306.754 817.5 310.384C837.094 338.571 835.067 414.411 828.889 447.508C826.599 459.755 822.582 479.475 811.371 486.989C809.448 488.279 807.165 488.941 804.979 489.657C796.682 487.188 795.163 485.631 790.357 478.216C786.72 472.601 784.221 460.013 781.98 456.217C781.913 448.597 781.993 442.383 781.662 434.633C785.232 434.561 792.641 434.888 795.947 434.334C812.761 431.522 811.163 404.541 811.389 391.985C811.445 388.691 811.279 384.87 810.728 381.957C810.508 372.072 807.844 363.842 798.807 358.876C793.106 358.73 787.087 358.796 781.356 358.763C782.427 355.38 780.97 338.063 781.778 331.833C781.944 334.353 782.06 337.606 782.434 340.043Z" fill="#FEA53D"/>
<path d="M910.356 264.678C917.906 264.595 938.718 264.026 945.705 265.05C979.247 266.804 983.551 323.251 985.676 348.871C992.338 348.775 1003.29 347.779 1007.84 353.21C1016.9 364.04 1017 393.369 1015.42 407.066C1014.78 416.666 1014.39 431.021 1006.66 437.711C1001.65 442.048 996.814 441.731 990.764 441.448L985.829 441.505C983.717 463.314 979.32 502.861 961.6 517.323C951.117 525.878 931.873 523.529 917.992 523.533L909.297 523.514C912.928 510.691 916.528 499.68 918.824 486.326C930.648 417.633 930.642 331.329 910.356 264.678Z" fill="#FEFEFD"/>
<path d="M910.356 264.678C917.906 264.595 938.718 264.026 945.705 265.05C936.857 265.628 925.695 265.313 916.651 265.248C921.182 273.816 924.892 291.663 926.588 302.172C937.524 369.972 937.763 449.233 920.031 515.809C919.455 517.957 917.918 521.581 917.992 523.533L909.297 523.514C912.928 510.691 916.528 499.68 918.824 486.326C930.648 417.633 930.642 331.328 910.356 264.678Z" fill="#FEE5C9"/>
<path d="M991.909 414.566C1004.43 419.601 1006.98 415.569 1015.42 407.066C1014.78 416.666 1014.39 431.021 1006.66 437.711C1001.65 442.048 996.814 441.731 990.764 441.448C990.862 432.724 991.444 423.295 991.909 414.566Z" fill="#FEE5C9"/>
<path d="M986.998 413.748L987.819 411.869C989.693 411.876 990.048 412.885 991.909 414.566C991.444 423.295 990.862 432.724 990.764 441.448L985.829 441.505C986.092 431.955 987.011 423.576 986.998 413.748Z" fill="#FDD4A4"/>
<path d="M986.998 413.748C987.084 411.107 987.482 392.313 988.149 391.16C989.546 394.249 990.874 397.321 992.57 400.261C992.319 405.028 992.099 409.797 991.909 414.566C990.048 412.885 989.693 411.876 987.819 411.869L986.998 413.748Z" fill="#FEE5C9"/>
<defs>
<filter id="filter0_f_1_3" x="-270.6" y="-736.6" width="2143.2" height="2143.2" filterUnits="userSpaceOnUse" color-interpolation-filters="sRGB">
<feFlood flood-opacity="0" result="BackgroundImageFix"/>
<feBlend mode="normal" in="SourceGraphic" in2="BackgroundImageFix" result="shape"/>
<feGaussianBlur stdDeviation="254.8" result="effect1_foregroundBlur_1_3"/>
</filter>
</defs>
</svg>
